<?xml version="1.0" encoding="UTF-8"?> <svg xmlns="http://www.w3.org/2000/svg" viewBox="0 0 1838 415.42"><defs><style>.cls-1{fill:#fff;}</style></defs><title>staffpplex2</title><g id="Layer_2" data-name="Layer 2"><g id="Layer_1-2" data-name="Layer 1"><g id="Layer_1-2-2" data-name="Layer 1-2"><path class="cls-1" d="M205.4,0a217,217,0,0,1,37.39,3.18h.07q72.76,12.83,121.86,68a141.85,141.85,0,0,1,14.67,19.48c2,3.3,1.29,4.76-2.69,4.63-3.83-.13-7.68,0-11.52,0C300.11,95.29,235,95.75,170,95c-21.64-.24-38.55,7.17-52.72,22.89-10.58,11.75-19.35,24.74-24.14,39.65-6.75,21-.63,40.23,12.09,57.45,11.78,16,27.45,24.21,47.71,22.65,27.34-2.11,54.69-.5,82-.08,12.42.19,16.77,4.65,17.42,17a99.68,99.68,0,0,1,0,10.08c-.61,12-5,16.48-16.92,16.58-26.89.22-53.78.2-80.67.22-20.65,0-41.3.17-61.94-.21-11-.2-19.14,3.5-25.34,13-6.78,10.42-14.67,20.14-22.24,30-2.87,3.74-7.28,3.57-9.86-.36A220.48,220.48,0,0,1,4.3,250.81v-.13A159.54,159.54,0,0,1,0,215.32V197.58a137.11,137.11,0,0,1,4.2-32.45V165C21.68,92,65.31,41.61,134.77,13.28c8.27-3.38,17-5.21,25.58-7.49A175.63,175.63,0,0,1,205.4,0Z"></path><path class="cls-1" d="M157.46,331.37c31.94,0,63.94-1.22,95.81.36,29,1.44,47.72-12.69,61.92-35.26a78.26,78.26,0,0,0-4.73-89.81c-8.79-11.27-20.62-16.75-35-16.72q-40.71.08-81.41-.08c-3.33,0-6.68.14-10-.88-11.73-3.62-18.37-12.28-17-22.45,1.61-12,10.67-20.56,22.9-20.63,39.86-.23,79.73,0,119.59-.24,34.25-.17,27.35,3.3,50.62-22.72,6.4-7.15,13.29-13.88,19.49-21.18,3.41-4,5-3.59,7.55.7a192.71,192.71,0,0,1,26.09,72.64c9.82,68.45-9,128.25-56.92,178.24C288.44,424.21,175.55,435.75,93.8,381c-18.52-12.39-34.45-27.38-48.72-44.33-1-1.2-3.06-2.23-2.27-4.09,1-2.33,3.38-1.21,5.14-1.21Q102.71,331.34,157.46,331.37Z"></path><path class="cls-1" d="M531.67,232.87c9.33-11.37,17.49-21.36,25.71-31.3,2.65-3.21,6.46-2.7,10-2.72q46.1-.25,92.17-.43H661c17-.09,22.67-8.29,16.77-24.61-1.72-4.78-6.15-4.88-10.19-5-17.5-.34-35-1.38-52.53-.38-24.88,1.46-43.75-14.43-47-39.24-3.51-26.2,25-59.87,51.41-60.38,12-.23,24,.09,36,.07,36-.07,72-.22,108-.21,2.44,0,5.83-1.5,7.23,1.45s-1.85,4.58-3.51,6.43C761,83.33,754.59,89.81,748.75,96.8c-4.74,5.68-10.46,7.6-17.66,7.59q-45.37,0-90.73.56c-10.73.14-14.25,3.31-17.18,12.91-1.38,4.52-.35,7.9,3.25,10.82a23.54,23.54,0,0,0,15.19,5.58c15.36.07,30.73,0,46.08.23,22.57.34,38.71,11.82,44.1,31.09,7.51,26.87-10.24,59.75-35.67,66.21-5.93,1.51-11.94,1-17.92,1.06q-69.12.32-138.26.45C537.86,233.31,535.78,233.09,531.67,232.87Z"></path><path class="cls-1" d="M1591.44,178.57a12.27,12.27,0,0,0,7.37-4.51c7.11-8.83,16.36-10.39,27-9.67s21.36.15,34.21.15c-11,10.21-20.6,19.05-30.17,27.88-2,1.82-4.53,1.47-6.87,1.49-9.34.11-18.7.08-28,.05-3.65,0-7.25,0-9.84,3.23-1.92,2.37-3,5.29-2,8,1,2.36,3.85,1,5.84,1.06,22.33.09,44.66.23,67-.06,6-.08,6.41,1.62,3.87,6.32-8,14.81-19.71,23.87-37.12,23.91-28.81.06-57.62-.17-86.42.08-6.64.06-7.54-1.61-5.27-7.7,11.64-31.2,22.81-62.57,34.31-93.82,4.17-11.33,7.57-13.71,19.75-13.76,35.76-.16,71.53-.15,107.3-.18a20.89,20.89,0,0,1,3.2.74c-7.3,8.86-13.31,17.9-21.66,25-3.89,3.3-8.76,3.56-13.6,3.56-16.32,0-32.65.2-49-.08-7.28-.12-11.65,2.37-13.5,9.78C1596.35,166.2,1593.75,172.07,1591.44,178.57Z"></path><path class="cls-1" d="M962.44,236.45H961c-5.74-.12-12.92,1.77-16.79-1-3.37-2.4-3-10-4.26-15.38-.32-1.35-.12-3.12-1.77-3.54s-2.65,1.06-3.32,2.26c-8.58,15.28-22.59,18.79-38.65,18-20.86-1-41.73-.53-62.59-.41-1.82,0-4.19.93-5.36-.84-1.52-2.3.75-4.08,2-5.66q25.63-33.24,51.44-66.37c7.93-10.2,16.11-20.21,23.92-30.5,6.76-8.91,15.18-13.33,26.61-12.28,6.66.61,13.42.16,20.14.1,6.92-.06,11.17,2.92,12.77,10,4,17.53,6.47,35.32,9.32,53,2.51,15.6,4.23,31.33,7,46.88,1,5.53-1,6-5.3,5.78C971.57,236.27,967,236.45,962.44,236.45Zm-68.57-29.79c14.67,0,27.37-.13,40.07.08,4.25.07,4.53-1.57,3.94-5.19-2.33-14.36-4.35-28.76-6.74-44.87Z"></path><path class="cls-1" d="M1356.86,121.11c14.64,0,29.28-.06,43.92,0,10.88.07,17.46,4.87,21.06,15.07,9.19,26.07-7.09,53.69-34.56,57.43-17.14,2.33-34.51.91-51.78,1-3.35,0-6.72,0-10.07-.08-5-.14-7.93,2.21-9.5,7-3,9.1-6.44,18.05-9.48,27.13-1.83,5.48-5,8.14-11.11,7.9-9.83-.39-19.68-.21-29.52-.06-3.56.05-4.7-.63-3.29-4.44q19.23-52.23,38.2-104.56c1.87-5.14,5.75-6.45,10.77-6.41C1326.62,121.17,1341.74,121.11,1356.86,121.11Zm-32.67,60.22a4.65,4.65,0,0,0,1.19-.31,13.52,13.52,0,0,0,2-1.93c6.8-9.12,16.09-13.21,27.24-13.37,5.74-.08,11.49.14,17.23.16,5.32,0,7.77-4.48,8.93-8s-3.71-4.81-6.52-5.83c-4.8-1.75-10-.86-15-.77-26.77.46-28.11,1.57-35,27.56A14.81,14.81,0,0,0,1324.19,181.33Z"></path><path class="cls-1" d="M1838,122.23c-.44,3.48-3.47,4.6-5.46,6.34q-24.82,21.83-49.94,43.33c-5.63,4.81-7.44,9.92-4.35,17.1,6,14.07,11.47,28.41,17.36,42.55,1.73,4.16,1.68,6-3.66,5.79-11-.42-22.07-.57-33.1-.36-5.73.12-8.89-2.4-10.88-7.41-2.48-6.21-5.18-12.33-8.24-19.54-10.73,9.71-19.3,21.12-33.64,24.66-13.54,3.34-27,2.25-41.27,1.26,1.4-4,4.65-5.81,7.16-8,15.79-14,31.71-27.79,47.57-41.69,7.44-6.53,8-9,4.27-18.13-6.26-15.28-12.59-30.53-19.1-46.3h42.62c3.66,0,4.88,2.75,6,5.31a167.68,167.68,0,0,1,6.68,15.91c1.57,4.62,3.08,5.58,7,1.91,6.63-6.22,13.68-12,20.49-18a18.58,18.58,0,0,1,13.15-4.72C1813,122.33,1825.41,122.23,1838,122.23Z"></path><path class="cls-1" d="M1055.13,178.89c7.15-4.71,11.4-10.56,18.48-12.41a70.12,70.12,0,0,1,18.54-1.85c9.73.07,19.45,0,31.17,0-10.76,11.13-19.92,21-30.86,28.42-6,4.11-14.53,1.56-21.93,1.48-2.63,0-5.25-.54-7.87-.54-12,0-16.42,3.07-20.09,14.39-2,6.15-3.61,12.42-5.35,18.64-2.06,7.33-7,10.43-14.44,10.19-8.87-.28-17.76-.59-26.64-.49-4,0-4.4-1.19-3.16-4.56q19-51.58,37.84-103.22c1.88-5.1,5.63-7.33,11.12-7.33q54.39,0,108.79-.35c4.65,0,4.46,1.47,3,5-6.14,15.28-19.55,24.64-37,24.88-14.15.2-28.32,0-42.47-.39-7.51-.23-11.6,3-13.44,10.07C1059.41,166.32,1057.44,171.68,1055.13,178.89Z"></path><path class="cls-1" d="M1292.28,123.4a261.82,261.82,0,0,1-22.81,25.43c-2.26,2.21-5.3,1.87-8.18,1.87-17.53,0-35,.24-52.57.08-6.65-.06-10.77,2.11-12.54,9-1.52,5.94-4.17,11.6-6.52,17.94,4.42.58,6.5-2.17,8.56-4.46,4.39-4.87,9.85-8,16.24-8.21,13.78-.4,27.58-.12,43.37-.12-11.06,10.13-20.4,19.62-30.79,27.78-4.66,3.67-11.68,2-17.59,1.52-26.09-2-28.22-.81-35.22,24.3-6.09,21.87-6.81,17.67-23.79,18-6.24.13-12.49-.27-18.72,0-4.41.22-4.81-1.5-3.52-5q18.85-51.27,37.69-102.55c1.55-4.19,3.81-7.67,9.15-7.7C1213.64,121.13,1252.24,121.11,1292.28,123.4Z"></path><path class="cls-1" d="M744.32,151.23c9.12-10.19,17-19.09,25-27.9,1.93-2.13,4.66-2.23,7.34-2.23,32.4,0,64.8.05,97.2-.07,4.31,0,5.7.7,3.61,5.16-7,14.93-17.88,23.92-35,24.2-12,.2-13.24,1.21-17.46,12.88q-11.22,31.11-22.41,62.22c-3.71,10.24-4.79,10.94-15.67,10.95-8.4,0-16.81-.18-25.2.09-4.55.15-5.23-1-3.63-5.27,8.9-24,17.54-48.1,26.25-72.17,2.83-7.83,2.82-7.85-5.79-7.86Z"></path><path class="cls-1" d="M1460.93,206.32h58.69c7.2,0,7.7.63,4,7-8.16,14.31-20,23.07-37.08,23.08-23.77,0-47.55-.1-71.32,0-5.41,0-7.83-.4-5.34-7,12.55-33.41,24.67-67,36.77-100.57,2-5.48,5-8.17,11.06-7.92,9.11.37,18.26.39,27.37,0,5.26-.22,5.94,1.2,4.18,5.94-9.48,25.61-18.69,51.32-28,77A20.63,20.63,0,0,0,1460.93,206.32Z"></path><path class="cls-1" d="M558.45,343.13q-12.57,0-20.92-8.34A28.72,28.72,0,0,1,529.19,314a28.18,28.18,0,0,1,8.34-20.7q8.36-8.44,20.92-8.45a28.24,28.24,0,0,1,14.81,3.95,23.49,23.49,0,0,1,9.57,10.63l-6,3.45a17.37,17.37,0,0,0-7.18-8,21.45,21.45,0,0,0-11.19-2.95,21.84,21.84,0,0,0-21.92,21.76v.24a21.86,21.86,0,0,0,6.34,15.7A21.17,21.17,0,0,0,558.45,336a21.54,21.54,0,0,0,11.08-2.89,20.23,20.23,0,0,0,7.73-8l6.12,3.57a25.7,25.7,0,0,1-10.12,10.57A28.92,28.92,0,0,1,558.45,343.13Z"></path><path class="cls-1" d="M586.17,286.15h46.74v7.12h-19.7V341.8h-7.35V293.27H586.17Z"></path><path class="cls-1" d="M671.63,284.82a27.47,27.47,0,0,1,20.26,8.45,29.57,29.57,0,0,1,0,41.41,27.43,27.43,0,0,1-20.26,8.45q-14.79,0-22.48-12.24v33.17h-7.34V286.15h7.34v10.91Q656.83,284.82,671.63,284.82ZM655.5,329.67a22.3,22.3,0,0,0,31.16,0,22.14,22.14,0,1,0-37.51-16.61c0,.32,0,.63,0,.94A21.78,21.78,0,0,0,655.5,329.67Z"></path><path class="cls-1" d="M759.22,334.79a30,30,0,0,1-41.51,0A28.27,28.27,0,0,1,709.25,314a27.91,27.91,0,0,1,8.46-20.7,29.71,29.71,0,0,1,41.51,0,27.74,27.74,0,0,1,8.57,20.7A28.35,28.35,0,0,1,759.22,334.79Zm-36.28-5.12a22.3,22.3,0,0,0,31.16,0A22.15,22.15,0,1,0,716.59,313c0,.32,0,.63,0,.94a21.79,21.79,0,0,0,6.35,15.7Z"></path><path class="cls-1" d="M787.37,329l33.17-42.85h6.23V341.8h-7.35V299l-33.16,42.8H780V286.15h7.34Z"></path><path class="cls-1" d="M835.67,286.15h46.74v7.12H862.72V341.8h-7.35V293.27h-19.7Z"></path><path class="cls-1" d="M914.8,284.82q12.47,0,19.92,8.79a30,30,0,0,1,7.68,20.59c0,.37-.08,1.52-.22,3.45H893.32A20.21,20.21,0,0,0,900.44,331q6,5,15,5,12.69,0,17.92-9.46l6.45,3.78a25.68,25.68,0,0,1-10.07,9.41,30.33,30.33,0,0,1-14.41,3.39q-13.14,0-21.37-8.23T885.75,314q0-12.57,8.13-20.81T914.8,284.82Zm0,7.12a21.25,21.25,0,0,0-14.52,5.12,20.85,20.85,0,0,0-7,13.46h41.51q-1.23-8.89-6.79-13.68A19.89,19.89,0,0,0,914.8,291.94Z"></path><path class="cls-1" d="M957.65,286.15h39.84V341.8h-7.35V293.27H965v24.82q0,13.92-5.34,19.15t-14.47,4.56v-6.9q6.45.66,9.46-3.12t3-13.69Z"></path><path class="cls-1" d="M1020.41,307.3h15.25a19,19,0,0,1,13.13,4.89,16.83,16.83,0,0,1,1,23.78c-.33.36-.68.71-1,1a18.72,18.72,0,0,1-13.13,4.79h-22.59V286.15h7.34Zm0,27.38h15.25a11.67,11.67,0,0,0,8-2.84,9.84,9.84,0,0,0,.68-13.9,8.73,8.73,0,0,0-.68-.68,11.72,11.72,0,0,0-8-2.84h-15.25Z"></path><path class="cls-1" d="M1104.77,310.41V286.15h7.34V341.8h-7.34V317.54h-32V341.8h-7.35V286.15h7.35v24.26Z"></path><path class="cls-1" d="M1135,307.3h15.25a19,19,0,0,1,13.13,4.89,16.85,16.85,0,0,1,1,23.81c-.32.35-.66.69-1,1a18.72,18.72,0,0,1-13.13,4.79h-22.6V286.15H1135Zm0,27.38h15.25a11.72,11.72,0,0,0,8-2.84,9.84,9.84,0,0,0,.68-13.9,8.73,8.73,0,0,0-.68-.68,11.72,11.72,0,0,0-8-2.84H1135Zm41.62,7.12V286.15H1184V341.8Z"></path><path class="cls-1" d="M1206.93,329l33.17-42.85h6.23V341.8H1239V299l-33.16,42.85h-6.23v-55.7H1207Zm30.5-51.75h-28.94v-6.46h28.94Z"></path><path class="cls-1" d="M1289.73,286.15h46.74V341.8h-7.34V293.27h-32.05V341.8h-7.35Z"></path><path class="cls-1" d="M1377.76,284.82q12.46,0,19.92,8.79a30,30,0,0,1,7.68,20.59c0,.37-.07,1.52-.22,3.45h-48.86A20.21,20.21,0,0,0,1363.4,331q6,5,15,5,12.69,0,17.92-9.46l6.45,3.78a25.61,25.61,0,0,1-10.07,9.41,30.33,30.33,0,0,1-14.41,3.39q-13.14,0-21.37-8.23T1348.71,314q0-12.57,8.13-20.81T1377.76,284.82Zm0,7.12a21.25,21.25,0,0,0-14.52,5.12,20.85,20.85,0,0,0-7,13.46h41.51q-1.21-8.89-6.78-13.68A19.92,19.92,0,0,0,1377.76,291.94Z"></path><path class="cls-1" d="M1446.87,284.82a27.47,27.47,0,0,1,20.26,8.45,29.59,29.59,0,0,1,0,41.41,27.43,27.43,0,0,1-20.26,8.45q-14.8,0-22.48-12.24v33.17h-7.34V286.15h7.34v10.91Q1432.07,284.82,1446.87,284.82Zm-16.14,44.85a22.33,22.33,0,0,0,31.17,0A22.15,22.15,0,1,0,1424.39,313c0,.32,0,.63,0,.94A21.86,21.86,0,0,0,1430.73,329.67Z"></path><path class="cls-1" d="M1513.76,343.13q-12.59,0-20.93-8.34a28.78,28.78,0,0,1-8.34-20.82,28.18,28.18,0,0,1,8.34-20.7q8.36-8.44,20.93-8.45a28.21,28.21,0,0,1,14.8,3.95,23.49,23.49,0,0,1,9.57,10.63l-6,3.45a17.37,17.37,0,0,0-7.18-8,21.42,21.42,0,0,0-11.18-3,21,21,0,0,0-15.58,6.45,21.23,21.23,0,0,0-6.35,15.58,21.79,21.79,0,0,0,6.35,15.7,21.13,21.13,0,0,0,15.58,6.34,21.6,21.6,0,0,0,11.07-2.89,20.23,20.23,0,0,0,7.73-8l6.12,3.57a25.7,25.7,0,0,1-10.12,10.57A29,29,0,0,1,1513.76,343.13Z"></path><path class="cls-1" d="M1595.33,334.79a30,30,0,0,1-41.51,0,28.32,28.32,0,0,1-8.46-20.82,27.91,27.91,0,0,1,8.46-20.7,29.71,29.71,0,0,1,41.51,0,27.74,27.74,0,0,1,8.57,20.7A28.34,28.34,0,0,1,1595.33,334.79Zm-36.28-5.12a22.3,22.3,0,0,0,31.16,0,22.14,22.14,0,1,0-37.5-16.64c0,.32,0,.63,0,.94a21.82,21.82,0,0,0,6.34,15.7Z"></path><path class="cls-1" d="M1655.54,310.41V286.15h7.34V341.8h-7.34V317.54h-32V341.8h-7.35V286.15h7.35v24.26Z"></path><path class="cls-1" d="M1726.32,297.06V286.15h7.34V341.8h-7.34V330.89q-7.68,12.24-22.48,12.24a27.83,27.83,0,0,1-20.37-8.45,29.85,29.85,0,0,1,0-41.41,27.83,27.83,0,0,1,20.37-8.45Q1718.63,284.82,1726.32,297.06Zm-37.51,32.61a22.3,22.3,0,0,0,31.16,0,21.83,21.83,0,0,0,6.35-15.7,21.23,21.23,0,0,0-6.35-15.58,22.08,22.08,0,0,0-31.16,31.28Z"></path><path class="cls-1" d="M1755,286.15h39.84V341.8h-7.35V293.27h-25.15v24.82q0,13.92-5.34,19.15t-14.47,4.56v-6.9q6.46.66,9.46-3.12t3-13.69Z"></path></g></g></g></svg> 