<?xml version="1.0" encoding="UTF-8"?> <svg xmlns="http://www.w3.org/2000/svg" width="42" height="42" fill="none"><g clip-path="url(#clip0)"><path d="M35.85 6.15A20.863 20.863 0 0021 0 20.863 20.863 0 006.15 6.15 20.863 20.863 0 000 21c0 5.61 2.184 10.883 6.15 14.85A20.863 20.863 0 0021 42c5.61 0 10.883-2.184 14.85-6.15A20.863 20.863 0 0042 21c0-5.61-2.184-10.883-6.15-14.85z" fill="#8596C1"></path><path d="M42 21c0-5.61-2.184-10.883-6.15-14.85A20.863 20.863 0 0021 0v42c5.61 0 10.883-2.184 14.85-6.15A20.863 20.863 0 0042 21z" fill="#8591B3"></path><path d="M22.318 19.77h-2.636a2.726 2.726 0 01-2.723-2.724 2.727 2.727 0 012.723-2.723h5.272a1.23 1.23 0 100-2.461h-2.723V9.138a1.23 1.23 0 00-2.461 0v2.724h-.088a5.19 5.19 0 00-5.184 5.184 5.19 5.19 0 005.184 5.184h2.636a2.726 2.726 0 012.724 2.724 2.727 2.727 0 01-2.724 2.723h-5.271a1.23 1.23 0 000 2.461h2.723v2.724a1.23 1.23 0 102.46 0v-2.724h.088a5.19 5.19 0 005.185-5.184 5.19 5.19 0 00-5.185-5.184z" fill="#fff"></path><path d="M24.954 14.323a1.23 1.23 0 100-2.461H22.23V9.138c0-.68-.55-1.23-1.23-1.23v6.415h3.954zm-2.636 5.447H21v2.46h1.318a2.726 2.726 0 012.723 2.724 2.727 2.727 0 01-2.723 2.723H21v6.415c.68 0 1.23-.55 1.23-1.23v-2.724h.088a5.19 5.19 0 005.184-5.184 5.19 5.19 0 00-5.184-5.184z" fill="#fff"></path></g><defs><clipPath id="clip0"><path fill="#fff" d="M0 0h42v42H0z"></path></clipPath></defs></svg> 