<?xml version="1.0" encoding="UTF-8"?> <svg xmlns="http://www.w3.org/2000/svg" width="36" height="36" fill="none"><path opacity=".5" fill-rule="evenodd" clip-rule="evenodd" d="M21.126 18.727c-3.526-.978-6.848-.958-10.26-.01C9.15 19.195 8 20.64 8 22.318v.933c0 .414.358.75.8.75h14.4c.442 0 .8-.336.8-.75v-.922c0-1.677-1.154-3.125-2.874-3.601zM16.5 16c2.534 0 4.5-2.895 4.5-5.385C21 8.07 18.982 6 16.5 6S12 8.07 12 10.615C12 13.105 13.966 16 16.5 16z" fill="#fff"></path><path fill-rule="evenodd" clip-rule="evenodd" d="M30.213 28A18.14 18.14 0 0128 30.213L33.786 36 36 33.786 30.213 28z" fill="#fff"></path><path fill-rule="evenodd" clip-rule="evenodd" d="M16.5 0C25.598 0 33 7.401 33 16.5S25.598 33 16.5 33C7.402 33 0 25.599 0 16.5S7.402 0 16.5 0zM1.571 16.5c0 8.232 6.697 14.929 14.929 14.929S31.429 24.732 31.429 16.5 24.732 1.571 16.5 1.571 1.571 8.268 1.571 16.5z" fill="#fff"></path></svg> 