<?xml version="1.0" encoding="UTF-8"?> <svg xmlns="http://www.w3.org/2000/svg" width="57" height="57" fill="none"><g clip-path="url(#clip0)"><path d="M15.25 39.799H.924A.924.924 0 010 38.875v-.97a6.716 6.716 0 016.716-6.715h6.523a5.792 5.792 0 015.161 3.161" fill="#60719F"></path><path d="M13.239 31.19h-3.88v8.61h5.891l3.15-5.448a5.792 5.792 0 00-5.161-3.16zm25.329 3.135c.966-1.853 2.96-3.222 5.194-3.222h7.447a5.792 5.792 0 015.792 5.792v1.3c0 .838-.68 1.517-1.517 1.517H41.75" fill="#4E639A"></path><path d="M28.453 27.267a8.105 8.105 0 100-16.21 8.105 8.105 0 000 16.21z" fill="#B6C6EF"></path><path d="M40.38 45.943H16.524c-.837 0-1.516-.68-1.516-1.517v-3.65a8.445 8.445 0 018.445-8.444h9.999a8.445 8.445 0 018.445 8.445v3.65c0 .837-.68 1.516-1.517 1.516z" fill="#fff"></path><path d="M47.484 26.91a5.736 5.736 0 100-11.472 5.736 5.736 0 000 11.472zm-38.124 0a5.736 5.736 0 100-11.472 5.736 5.736 0 000 11.472z" fill="#8596C1"></path><path d="M28.512 11.057v16.207a8.104 8.104 0 000-16.207z" fill="#8FA1D0"></path><path d="M33.452 32.332h-4.94v13.61H40.38c.838 0 1.517-.678 1.517-1.516v-3.65a8.445 8.445 0 00-8.445-8.444z" fill="#C7D1EB"></path><path d="M47.484 15.438V26.91a5.736 5.736 0 000-11.472z" fill="#6C7DAC"></path><path d="M51.209 31.103h-3.754v8.609h8.03c.837 0 1.516-.68 1.516-1.517v-1.3a5.792 5.792 0 00-5.792-5.792z" fill="#60719F"></path><path d="M9.358 15.438h-.03V26.91h.03a5.736 5.736 0 100-11.472z" fill="#6C7DAC"></path></g><defs><clipPath id="clip0"><path fill="#fff" d="M0 0h57v57H0z"></path></clipPath></defs></svg> 